<?xml version="1.0" encoding="utf-8"?><svg xmlns="http://www.w3.org/2000/svg" xmlns:xlink="http://www.w3.org/1999/xlink" width="1366" height="643" preserveAspectRatio="xMidYMid" viewBox="0 0 1366 643" style="z-index:1;display:block;background-color:rgb(241, 242, 243);animation-play-state:paused" ><g transform="" style="animation-play-state:paused" ><linearGradient id="lg-0.7216135207932092" x1="0" x2="1" y1="0" y2="0" style="animation-play-state:paused" ><stop stop-color="#0051a2" offset="0" style="animation-play-state:paused" ></stop>

  
<stop stop-color="#1b75be" offset="1" style="animation-play-state:paused" ></stop></linearGradient>
<path d="M0 0L0 440.4203186035156Q136.60000610351562 399.3278503417969 273.20001220703125 377.29400634765625T546.4000244140625 321.2940979003906T819.5999755859375 311.92486572265625T1092.800048828125 242.23011779785156T1366 176.18040466308594L1366 0z" fill="url(#lg-0.7216135207932092)" opacity="0.4" style="opacity:0.4;animation-play-state:paused" ></path>
<path d="M0 0L0 467.5989685058594Q136.60000610351562 424.3558654785156 273.20001220703125 393.8808288574219T546.4000244140625 318.04052734375T819.5999755859375 327.7111511230469T1092.800048828125 245.9486083984375T1366 197.3280792236328L1366 0z" fill="url(#lg-0.7216135207932092)" opacity="0.4" style="opacity:0.4;animation-play-state:paused" ></path>
<path d="M0 0L0 478.9449768066406Q136.60000610351562 401.4696350097656 273.20001220703125 368.1686096191406T546.4000244140625 371.1515197753906T819.5999755859375 286.80206298828125T1092.800048828125 303.85723876953125T1366 268.8614501953125L1366 0z" fill="url(#lg-0.7216135207932092)" opacity="0.4" style="opacity:0.4;animation-play-state:paused" ></path>
<path d="M0 0L0 457.68328857421875Q136.60000610351562 473.5744934082031 273.20001220703125 435.9292907714844T546.4000244140625 348.1413269042969T819.5999755859375 312.98284912109375T1092.800048828125 317.07330322265625T1366 210.82752990722656L1366 0z" fill="url(#lg-0.7216135207932092)" opacity="0.4" style="opacity:0.4;animation-play-state:paused" ></path>
<path d="M0 0L0 455.1604309082031Q136.60000610351562 393.2373046875 273.20001220703125 358.5213317871094T546.4000244140625 367.77276611328125T819.5999755859375 348.5024108886719T1092.800048828125 279.4755859375T1366 269.8876647949219L1366 0z" fill="url(#lg-0.7216135207932092)" opacity="0.4" style="opacity:0.4;animation-play-state:paused" ></path></g></svg>